#N canvas 0 0 497 622 10;
#X obj 66 202 osc~;
#X obj 65 169 line~;
#X obj 65 122 + 800;
#X obj 65 98 random 1600;
#X obj 16 201 delta~;
#X obj 50 281 *~;
#X obj 9 226 lop~ 10;
#X obj 178 203 osc~;
#X obj 177 170 line~;
#X obj 128 202 delta~;
#X obj 162 282 *~;
#X obj 121 227 lop~ 10;
#X obj 177 123 + 600;
#X obj 107 306 *~;
#X obj 239 574 dac~;
#X obj 177 99 random 1200;
#X obj 50 330 *~ 0.04;
#X obj 162 331 *~ 0.05;
#X obj 108 330 *~ 0.2;
#X obj 288 202 osc~;
#X obj 287 169 line~;
#X obj 238 201 delta~;
#X obj 271 278 *~;
#X obj 231 226 lop~ 10;
#X obj 400 203 osc~;
#X obj 399 170 line~;
#X obj 350 202 delta~;
#X obj 383 278 *~;
#X obj 343 222 lop~ 10;
#X obj 329 310 *~;
#X obj 328 336 *~ 0.2;
#X obj 239 419 *~;
#X obj 287 122 + 900;
#X obj 399 99 random 2200;
#X obj 399 123 + 1100;
#X obj 270 336 *~ 0.1;
#X obj 382 337 *~ 0.1;
#X obj 287 98 random 1800;
#X obj 288 70 metro 5;
#X obj 66 70 metro 3;
#X obj 239 467 hip~ 1000;
#X obj 167 28 loadbang;
#X msg 167 49 1;
#X obj 239 519 hip~ 800;
#X obj 239 545 *~ 20;
#X obj 65 144 pack 1 5;
#X obj 178 145 pack 1 6;
#X obj 107 353 bp~ 1000 8;
#X obj 106 387 hip~ 600;
#X obj 105 426 *~ 0.05;
#X obj 231 250 *~;
#X obj 344 249 *~;
#X obj 287 144 pack 1 6;
#X obj 399 145 pack 1 8;
#X obj 327 360 bp~ 2000 8;
#X obj 326 393 hip~ 700;
#X obj 326 419 *~ 0.009;
#X obj 239 443 bp~ 700 8;
#X obj 238 490 *~ 2;
#X obj 9 252 *~;
#X obj 121 251 *~;
#X text 155 -1 stream try 5;
#X connect 0 0 5 1;
#X connect 1 0 0 0;
#X connect 1 0 4 0;
#X connect 2 0 45 0;
#X connect 3 0 2 0;
#X connect 4 0 6 0;
#X connect 5 0 13 0;
#X connect 5 0 16 0;
#X connect 6 0 59 0;
#X connect 6 0 59 1;
#X connect 7 0 10 1;
#X connect 8 0 7 0;
#X connect 8 0 9 0;
#X connect 9 0 11 0;
#X connect 10 0 13 1;
#X connect 10 0 17 0;
#X connect 11 0 60 0;
#X connect 11 0 60 1;
#X connect 12 0 46 0;
#X connect 13 0 18 0;
#X connect 15 0 12 0;
#X connect 16 0 48 0;
#X connect 17 0 48 0;
#X connect 18 0 47 0;
#X connect 19 0 22 1;
#X connect 20 0 19 0;
#X connect 20 0 21 0;
#X connect 21 0 23 0;
#X connect 22 0 29 0;
#X connect 22 0 35 0;
#X connect 23 0 50 0;
#X connect 23 0 50 1;
#X connect 24 0 27 1;
#X connect 25 0 24 0;
#X connect 25 0 26 0;
#X connect 26 0 28 0;
#X connect 27 0 29 1;
#X connect 27 0 36 0;
#X connect 28 0 51 0;
#X connect 28 0 51 1;
#X connect 29 0 30 0;
#X connect 30 0 54 0;
#X connect 31 0 57 0;
#X connect 32 0 52 0;
#X connect 33 0 34 0;
#X connect 34 0 53 0;
#X connect 35 0 55 0;
#X connect 36 0 55 0;
#X connect 37 0 32 0;
#X connect 38 0 33 0;
#X connect 38 0 37 0;
#X connect 39 0 3 0;
#X connect 39 0 15 0;
#X connect 40 0 58 0;
#X connect 41 0 42 0;
#X connect 42 0 39 0;
#X connect 42 0 38 0;
#X connect 43 0 44 0;
#X connect 44 0 14 0;
#X connect 44 0 14 1;
#X connect 45 0 1 0;
#X connect 46 0 8 0;
#X connect 47 0 48 0;
#X connect 48 0 49 0;
#X connect 48 0 31 0;
#X connect 49 0 43 0;
#X connect 50 0 22 0;
#X connect 51 0 27 0;
#X connect 52 0 20 0;
#X connect 53 0 25 0;
#X connect 54 0 55 0;
#X connect 55 0 56 0;
#X connect 55 0 31 1;
#X connect 56 0 43 0;
#X connect 57 0 40 0;
#X connect 58 0 43 0;
#X connect 59 0 5 0;
#X connect 60 0 10 0;
