#N canvas 0 0 160 248 10;
#X obj 37 143 osc~;
#X obj 37 117 + 800;
#X obj 37 93 random 1600;
#X obj 37 202 dac~;
#X msg 24 45 1;
#X obj 37 70 metro 6;
#X msg 59 45 0;
#X obj 37 174 *~ 0.05;
#X text 22 19 stream try 1;
#X connect 0 0 7 0;
#X connect 1 0 0 0;
#X connect 2 0 1 0;
#X connect 4 0 5 0;
#X connect 5 0 2 0;
#X connect 6 0 5 0;
#X connect 7 0 3 0;
#X connect 7 0 3 1;
