#N canvas 0 0 350 254 10;
#X obj 88 69 noise~;
#X obj 145 70 ead~ 0 50;
#X obj 145 42 bng 15 250 50 0 empty empty empty 0 -6 0 8 -262144 -1
-1;
#X obj 117 103 *~;
#X obj 110 184 dac~;
#X obj 117 131 bp~ 440 80;
#X obj 118 158 *~ 2;
#X text 78 11 "Bongo" - resonant noise;
#X connect 0 0 3 0;
#X connect 1 0 3 1;
#X connect 2 0 1 0;
#X connect 3 0 5 0;
#X connect 5 0 6 0;
#X connect 6 0 4 0;
#X connect 6 0 4 1;
