#N canvas 0 0 865 869 10;
#X obj 276 44 noise~;
#X obj 285 843 dac~;
#X obj 6 123 hip~ 50;
#X obj 6 145 hip~ 50;
#X obj 77 124 hip~ 250;
#X obj 77 146 hip~ 250;
#X obj 78 213 lop~ 500;
#X obj 77 235 lop~ 500;
#X obj 169 123 hip~ 500;
#X obj 169 145 hip~ 500;
#X obj 169 212 lop~ 1000;
#X obj 169 234 lop~ 1000;
#X obj 251 120 hip~ 1000;
#X obj 251 142 lop~ 3000;
#X obj 602 613 vsl 15 128 0 0.7 0 0 empty empty empty 0 -8 0 8 -241291
-262144 -1 12700 1;
#X obj 287 809 *~ 0.5;
#X obj 5 460 *~;
#X obj 78 459 *~;
#X obj 287 741 *~;
#X obj 168 458 *~;
#X obj 356 445 *~;
#X obj 283 417 line;
#X obj 331 120 bp~ 3000 12;
#X obj 355 176 bp~ 2500 3;
#X obj 418 119 bp~ 800 12;
#X obj 267 188 /~;
#X obj 284 165 lop~ 10;
#X obj 264 623 bp~ 470 34;
#X obj 286 700 clip~ 0 1;
#X obj 188 623 bp~ 320 34;
#X obj 342 621 bp~ 2170 56;
#X obj 513 621 bp~ 9000 78;
#X obj 427 621 bp~ 2895 56;
#X obj 264 657 *~ 0.6;
#X obj 342 656 *~ 0.2;
#X obj 428 655 *~ 0.1;
#X obj 514 655 *~ 0.1;
#X obj 272 780 +~;
#X obj 265 574 *~ 1;
#X obj 305 532 *~ 1;
#X obj 392 707 *~ 0.5;
#X text 260 14 Put the kettle on;
#X text 271 253 limescale;
#X text 394 212 water reson;
#X obj 7 212 lop~ 150;
#X obj 6 234 lop~ 150;
#X obj 573 369 osc~ 440;
#X obj 573 393 *~;
#X obj 554 235 random 100;
#X msg 554 281 bang;
#X text 488 306 amplitude;
#X text 575 307 pitch;
#X obj 573 347 *~ 1500;
#X obj 495 144 f 0;
#X obj 526 144 + 1;
#X obj 495 169 mod 200;
#X obj 495 196 sel 29 37 47 67 89 113 157 197;
#X msg 495 89 1;
#X msg 524 88 0;
#X obj 554 259 moses 59;
#X obj 267 441 *~;
#X obj 612 489 *~;
#X text 570 158 boiling bubbles;
#X obj 573 324 ead~ 400 5;
#X obj 574 412 *~ 0.1;
#X obj 574 434 bp~ 900 2;
#X obj 487 348 lop~ 6;
#X obj 495 118 metro 3;
#X obj 486 325 ead~ 24 30;
#X obj 618 278 * 5;
#X obj 618 299 + 280;
#X obj 266 272 clip~ -50 50;
#X obj 267 213 *~ 1e-04;
#X obj 283 395 r \$0-limescale;
#X obj 372 370 line;
#X obj 372 348 r \$0-watreson;
#X obj 184 418 line;
#X obj 184 396 r \$0-broad;
#X obj 94 422 line;
#X obj 94 400 r \$0-body;
#X obj 17 419 line;
#X obj 17 397 r \$0-boil;
#X obj 647 455 line;
#X obj 647 433 r \$0-bubbles;
#N canvas 0 0 597 627 boil 0;
#X msg 196 54 1;
#X msg 278 55 0;
#X obj 195 104 f 0;
#X obj 222 104 + 1;
#X obj 195 165 bng 15 250 50 0 empty empty empty 0 -6 0 8 -262144 -1
-1;
#X obj 216 165 bng 15 250 50 0 empty empty empty 0 -6 0 8 -262144 -1
-1;
#X obj 236 166 bng 15 250 50 0 empty empty empty 0 -6 0 8 -262144 -1
-1;
#X obj 257 166 bng 15 250 50 0 empty empty empty 0 -6 0 8 -262144 -1
-1;
#X obj 281 166 bng 15 250 50 0 empty empty empty 0 -6 0 8 -262144 -1
-1;
#X obj 230 573 s \$0-limescale;
#X obj 7 574 s \$0-boil;
#X obj 79 574 s \$0-body;
#X obj 152 573 s \$0-broad;
#X obj 433 573 s \$0-bubbles;
#X obj 335 573 s \$0-watreson;
#X msg 392 241 0.2 3000;
#X msg 321 242 0.5 2000;
#X msg 457 241 0.2 10000;
#X msg 321 275 0 30000;
#X msg 397 274 0.5 20000;
#X msg 470 273 0.05 20000;
#X msg 393 339 0 9000;
#X msg 320 340 0.1 10000;
#X msg 397 305 0.15 10000;
#X msg 321 304 0.6 10000;
#X msg 445 339 1 15000;
#X msg 128 346 2 10000;
#X msg 247 342 0.01 8000;
#X msg 125 382 0 3000;
#X msg 185 379 0.05 3000;
#X msg 174 206 0 0;
#X obj 196 80 metro 15000;
#X obj 305 166 bng 15 250 50 0 empty empty empty 0 -6 0 8 -262144 -1
-1;
#X msg 382 515 0 10000;
#X text 392 497 tout fini;
#X obj 195 131 select 1 2 3 4 5 6 7;
#X obj 334 162 del 10;
#X obj 376 195 s \$0-switchnoise;
#X obj 196 10 inlet;
#X obj 196 31 t b;
#X obj 535 538 del 500;
#X obj 535 573 outlet;
#X text 533 599 done;
#X connect 0 0 31 0;
#X connect 1 0 2 0;
#X connect 1 0 30 0;
#X connect 1 0 31 0;
#X connect 2 0 3 0;
#X connect 2 0 35 0;
#X connect 3 0 2 1;
#X connect 4 0 16 0;
#X connect 4 0 15 0;
#X connect 4 0 17 0;
#X connect 5 0 18 0;
#X connect 5 0 19 0;
#X connect 5 0 20 0;
#X connect 6 0 23 0;
#X connect 6 0 24 0;
#X connect 7 0 21 0;
#X connect 7 0 22 0;
#X connect 7 0 25 0;
#X connect 7 0 26 0;
#X connect 7 0 27 0;
#X connect 8 0 28 0;
#X connect 8 0 29 0;
#X connect 8 0 37 0;
#X connect 8 0 40 0;
#X connect 15 0 14 0;
#X connect 16 0 9 0;
#X connect 17 0 12 0;
#X connect 18 0 9 0;
#X connect 19 0 11 0;
#X connect 20 0 12 0;
#X connect 21 0 11 0;
#X connect 22 0 14 0;
#X connect 23 0 14 0;
#X connect 24 0 11 0;
#X connect 25 0 13 0;
#X connect 26 0 10 0;
#X connect 27 0 11 0;
#X connect 28 0 10 0;
#X connect 28 0 11 0;
#X connect 28 0 12 0;
#X connect 28 0 9 0;
#X connect 28 0 14 0;
#X connect 28 0 13 0;
#X connect 29 0 14 0;
#X connect 29 0 9 0;
#X connect 29 0 13 0;
#X connect 30 0 10 0;
#X connect 30 0 11 0;
#X connect 30 0 12 0;
#X connect 30 0 9 0;
#X connect 30 0 14 0;
#X connect 30 0 13 0;
#X connect 31 0 2 0;
#X connect 32 0 33 0;
#X connect 33 0 13 0;
#X connect 33 0 14 0;
#X connect 33 0 9 0;
#X connect 33 0 12 0;
#X connect 33 0 11 0;
#X connect 33 0 10 0;
#X connect 35 0 4 0;
#X connect 35 1 5 0;
#X connect 35 2 6 0;
#X connect 35 3 7 0;
#X connect 35 4 8 0;
#X connect 35 5 32 0;
#X connect 35 6 36 0;
#X connect 36 0 1 0;
#X connect 38 0 39 0;
#X connect 39 0 0 0;
#X connect 39 0 37 0;
#X connect 40 0 41 0;
#X restore 740 196 pd boil sequence;
#X obj 740 162 bng 15 250 50 0 empty empty empty 0 -6 0 8 -262144 -1
-1;
#X obj 740 234 bng 15 250 50 0 empty empty ready_to_make_tea 0 -6 0
8 -262144 -258699 -1;
#X obj 495 52 loadbang;
#X obj 601 587 init 0.7;
#X obj 575 88 del 250;
#X text 776 169 sequencer;
#X text 589 795 ajf 2006;
#X connect 0 0 2 0;
#X connect 0 0 4 0;
#X connect 0 0 8 0;
#X connect 0 0 12 0;
#X connect 0 0 22 0;
#X connect 0 0 24 0;
#X connect 0 0 26 0;
#X connect 2 0 3 0;
#X connect 3 0 44 0;
#X connect 4 0 5 0;
#X connect 5 0 6 0;
#X connect 6 0 7 0;
#X connect 7 0 17 0;
#X connect 8 0 9 0;
#X connect 9 0 10 0;
#X connect 10 0 11 0;
#X connect 11 0 19 0;
#X connect 12 0 13 0;
#X connect 13 0 25 0;
#X connect 14 0 18 1;
#X connect 15 0 1 0;
#X connect 15 0 1 1;
#X connect 16 0 39 0;
#X connect 17 0 39 0;
#X connect 18 0 37 1;
#X connect 19 0 39 0;
#X connect 20 0 39 0;
#X connect 21 0 60 1;
#X connect 22 0 23 0;
#X connect 23 0 20 0;
#X connect 24 0 23 0;
#X connect 25 0 72 0;
#X connect 26 0 25 1;
#X connect 27 0 33 0;
#X connect 28 0 18 0;
#X connect 29 0 28 0;
#X connect 30 0 34 0;
#X connect 31 0 36 0;
#X connect 32 0 35 0;
#X connect 33 0 28 0;
#X connect 34 0 28 0;
#X connect 35 0 28 0;
#X connect 36 0 28 0;
#X connect 37 0 15 0;
#X connect 38 0 29 0;
#X connect 38 0 27 0;
#X connect 38 0 30 0;
#X connect 38 0 32 0;
#X connect 38 0 31 0;
#X connect 39 0 29 0;
#X connect 39 0 27 0;
#X connect 39 0 30 0;
#X connect 39 0 32 0;
#X connect 39 0 31 0;
#X connect 39 0 40 0;
#X connect 40 0 37 0;
#X connect 44 0 45 0;
#X connect 45 0 16 0;
#X connect 46 0 47 0;
#X connect 47 0 64 0;
#X connect 48 0 59 0;
#X connect 48 0 69 0;
#X connect 49 0 63 0;
#X connect 49 0 68 0;
#X connect 52 0 46 0;
#X connect 53 0 54 0;
#X connect 53 0 55 0;
#X connect 54 0 53 1;
#X connect 55 0 56 0;
#X connect 56 0 48 0;
#X connect 56 1 48 0;
#X connect 56 2 48 0;
#X connect 56 3 48 0;
#X connect 56 4 48 0;
#X connect 56 5 48 0;
#X connect 56 6 48 0;
#X connect 56 7 48 0;
#X connect 57 0 67 0;
#X connect 58 0 67 0;
#X connect 59 0 49 0;
#X connect 60 0 38 0;
#X connect 61 0 40 0;
#X connect 63 0 52 0;
#X connect 64 0 65 0;
#X connect 65 0 61 0;
#X connect 66 0 47 1;
#X connect 67 0 53 0;
#X connect 68 0 66 0;
#X connect 69 0 70 0;
#X connect 70 0 52 1;
#X connect 71 0 60 0;
#X connect 72 0 71 0;
#X connect 73 0 21 0;
#X connect 74 0 20 1;
#X connect 75 0 74 0;
#X connect 76 0 19 1;
#X connect 77 0 76 0;
#X connect 78 0 17 1;
#X connect 79 0 78 0;
#X connect 80 0 16 1;
#X connect 81 0 80 0;
#X connect 82 0 61 1;
#X connect 83 0 82 0;
#X connect 84 0 86 0;
#X connect 85 0 84 0;
#X connect 87 0 57 0;
#X connect 87 0 89 0;
#X connect 88 0 14 0;
#X connect 89 0 85 0;
