#N canvas 0 0 347 512 10;
#X obj 150 335 noise~;
#X obj 135 358 *~;
#X obj 117 480 dac~;
#X obj 11 401 bp~ 440 80;
#X obj 125 454 *~ 2;
#X obj 89 401 bp~ 440 80;
#X obj 166 401 bp~ 440 80;
#X obj 244 401 bp~ 440 80;
#X obj 134 315 ead~ 0 120;
#X obj 83 236 unpack 1 2 3 4 5;
#X msg 83 46 3454 5645 6433 6999 600;
#X text 11 46 metal;
#X text 9 73 glass 2;
#X text 11 179 wood;
#X msg 83 208 109 230 352 413 10;
#X obj 134 294 t;
#X msg 83 127 1245 1503 2131 2575 100;
#X text 11 151 plastic;
#X text 10 125 china;
#X text 10 99 glass 1;
#X text 7 207 cardboard;
#X msg 83 154 627 781 972 1184 70;
#X text 65 12 Simple material formants;
#X msg 83 71 2312 2466 3200 5314 380;
#X msg 82 98 1679 1233 4251 4640 340;
#X msg 83 181 221 333 426 527 40;
#X connect 0 0 1 1;
#X connect 1 0 3 0;
#X connect 1 0 5 0;
#X connect 1 0 6 0;
#X connect 1 0 7 0;
#X connect 3 0 4 0;
#X connect 4 0 2 0;
#X connect 4 0 2 1;
#X connect 5 0 4 0;
#X connect 6 0 4 0;
#X connect 7 0 4 0;
#X connect 8 0 1 0;
#X connect 9 0 3 1;
#X connect 9 1 5 1;
#X connect 9 2 6 1;
#X connect 9 3 7 1;
#X connect 9 4 15 0;
#X connect 9 4 3 2;
#X connect 9 4 5 2;
#X connect 9 4 6 2;
#X connect 9 4 7 2;
#X connect 10 0 9 0;
#X connect 14 0 9 0;
#X connect 15 0 8 0;
#X connect 16 0 9 0;
#X connect 21 0 9 0;
#X connect 23 0 9 0;
#X connect 24 0 9 0;
#X connect 25 0 9 0;
