#N canvas 173 61 670 471 10;
#X obj 106 28 r OS_freq_detune;
#X obj 106 165 pack 1 2;
#X obj 106 196 line;
#X obj 106 136 expr pow(2 \, $f1/12);
#X obj 106 111 f;
#X msg 25 109 1;
#X obj 25 28 inlet;
#X floatatom 347 192 5 0 0 0 - - -;
#X text 336 10 Fundamental Freq;
#X obj 347 126 * \$1;
#X obj 347 162 *;
#X text 503 8 f_offset;
#X obj 347 35 r OS_f0;
#X obj 502 33 r OS_f_offset;
#X obj 502 58 t b f;
#X obj 347 96 f;
#X floatatom 89 356 5 0 0 0 - - -;
#X obj 182 299 *;
#X text 285 392 Band Pass Filter Center Freq [Hz];
#X text 284 410 Center Freq = f0 * n * Df + detune;
#X obj 182 409 outlet;
#X obj 228 29 inlet;
#X connect 0 0 4 0;
#X connect 1 0 2 0;
#X connect 2 0 17 0;
#X connect 3 0 1 0;
#X connect 4 0 3 0;
#X connect 5 0 1 0;
#X connect 6 0 5 0;
#X connect 9 0 10 0;
#X connect 10 0 7 0;
#X connect 10 0 17 1;
#X connect 12 0 15 0;
#X connect 13 0 14 0;
#X connect 14 0 15 0;
#X connect 14 1 10 1;
#X connect 15 0 9 0;
#X connect 17 0 16 0;
#X connect 17 0 20 0;
#X connect 21 0 1 1;
