#N canvas 0 0 997 648 10;
#X obj 376 40 inlet~;
#X obj 469 107 line~;
#X obj 375 139 *~;
#X text 116 60 SOUND GENERATOR;
#X obj 469 77 pack 0 1000;
#X obj 469 38 r OS_trigger;
#X obj 39 215 voice_n 1;
#X obj 39 327 voice_n 33;
#X obj 345 616 voice_n 116;
#X obj 345 644 voice_n 124;
#X obj 345 421 voice_n 60;
#X obj 39 272 voice_n 17;
#X obj 39 355 voice_n 41;
#X obj 39 243 voice_n 9;
#X obj 39 387 voice_n 49;
#X obj 765 220 voice_n 8;
#X obj 39 300 voice_n 25;
#X obj 765 589 voice_n 112;
#X obj 135 214 voice_n 2;
#X obj 135 271 voice_n 18;
#X obj 39 416 voice_n 57;
#X obj 765 360 voice_n 48;
#X obj 563 304 voice_n 30;
#X obj 135 299 voice_n 26;
#X obj 239 273 voice_n 19;
#X obj 239 216 voice_n 3;
#X obj 345 220 voice_n 4;
#X obj 458 220 voice_n 5;
#X obj 563 219 voice_n 6;
#X obj 665 217 voice_n 7;
#X obj 135 242 voice_n 10;
#X obj 239 244 voice_n 11;
#X obj 345 248 voice_n 12;
#X obj 458 248 voice_n 13;
#X obj 563 247 voice_n 14;
#X obj 665 245 voice_n 15;
#X obj 765 248 voice_n 16;
#X obj 345 277 voice_n 20;
#X obj 458 277 voice_n 21;
#X obj 563 276 voice_n 22;
#X obj 665 274 voice_n 23;
#X obj 765 277 voice_n 24;
#X obj 239 301 voice_n 27;
#X obj 345 305 voice_n 28;
#X obj 458 305 voice_n 29;
#X obj 665 302 voice_n 31;
#X obj 765 305 voice_n 32;
#X obj 135 326 voice_n 34;
#X obj 239 328 voice_n 35;
#X obj 345 332 voice_n 36;
#X obj 458 332 voice_n 37;
#X obj 563 331 voice_n 38;
#X obj 665 329 voice_n 39;
#X obj 765 332 voice_n 40;
#X obj 135 354 voice_n 42;
#X obj 239 356 voice_n 43;
#X obj 345 360 voice_n 44;
#X obj 458 360 voice_n 45;
#X obj 563 359 voice_n 46;
#X obj 665 357 voice_n 47;
#X obj 135 387 voice_n 50;
#X obj 239 389 voice_n 51;
#X obj 345 393 voice_n 52;
#X obj 458 393 voice_n 53;
#X obj 563 392 voice_n 54;
#X obj 665 390 voice_n 55;
#X obj 765 393 voice_n 56;
#X obj 135 415 voice_n 58;
#X obj 239 417 voice_n 59;
#X obj 458 421 voice_n 61;
#X obj 563 420 voice_n 62;
#X obj 665 418 voice_n 63;
#X obj 765 421 voice_n 64;
#X obj 39 444 voice_n 65;
#X obj 135 443 voice_n 66;
#X obj 239 445 voice_n 67;
#X obj 345 449 voice_n 68;
#X obj 458 449 voice_n 69;
#X obj 563 448 voice_n 70;
#X obj 665 446 voice_n 71;
#X obj 765 449 voice_n 72;
#X obj 39 472 voice_n 73;
#X obj 135 471 voice_n 74;
#X obj 239 473 voice_n 75;
#X obj 345 477 voice_n 76;
#X obj 458 477 voice_n 77;
#X obj 563 476 voice_n 78;
#X obj 665 474 voice_n 79;
#X obj 765 477 voice_n 80;
#X obj 39 499 voice_n 81;
#X obj 135 498 voice_n 82;
#X obj 239 500 voice_n 83;
#X obj 345 504 voice_n 84;
#X obj 458 504 voice_n 85;
#X obj 563 503 voice_n 86;
#X obj 665 501 voice_n 87;
#X obj 765 504 voice_n 88;
#X obj 39 527 voice_n 89;
#X obj 135 526 voice_n 90;
#X obj 239 528 voice_n 91;
#X obj 345 532 voice_n 92;
#X obj 458 532 voice_n 93;
#X obj 563 531 voice_n 94;
#X obj 665 529 voice_n 95;
#X obj 765 532 voice_n 96;
#X obj 39 556 voice_n 97;
#X obj 135 555 voice_n 98;
#X obj 239 557 voice_n 99;
#X obj 345 561 voice_n 100;
#X obj 458 561 voice_n 101;
#X obj 563 560 voice_n 102;
#X obj 665 558 voice_n 103;
#X obj 765 561 voice_n 104;
#X obj 39 584 voice_n 105;
#X obj 135 583 voice_n 106;
#X obj 239 585 voice_n 107;
#X obj 345 589 voice_n 108;
#X obj 458 589 voice_n 109;
#X obj 563 588 voice_n 110;
#X obj 665 586 voice_n 111;
#X obj 39 611 voice_n 113;
#X obj 135 610 voice_n 114;
#X obj 239 612 voice_n 115;
#X obj 458 616 voice_n 117;
#X obj 563 615 voice_n 118;
#X obj 665 613 voice_n 119;
#X obj 765 616 voice_n 120;
#X obj 39 639 voice_n 121;
#X obj 135 638 voice_n 122;
#X obj 239 640 voice_n 123;
#X obj 458 644 voice_n 125;
#X obj 563 643 voice_n 126;
#X obj 665 641 voice_n 127;
#X obj 765 644 voice_n 128;
#X connect 0 0 2 0;
#X connect 1 0 2 1;
#X connect 2 0 6 0;
#X connect 2 0 7 0;
#X connect 2 0 8 0;
#X connect 2 0 9 0;
#X connect 2 0 10 0;
#X connect 2 0 11 0;
#X connect 2 0 12 0;
#X connect 2 0 13 0;
#X connect 2 0 14 0;
#X connect 2 0 15 0;
#X connect 2 0 16 0;
#X connect 2 0 17 0;
#X connect 2 0 18 0;
#X connect 2 0 19 0;
#X connect 2 0 20 0;
#X connect 2 0 21 0;
#X connect 2 0 22 0;
#X connect 2 0 23 0;
#X connect 2 0 24 0;
#X connect 2 0 25 0;
#X connect 2 0 26 0;
#X connect 2 0 27 0;
#X connect 2 0 28 0;
#X connect 2 0 29 0;
#X connect 2 0 30 0;
#X connect 2 0 31 0;
#X connect 2 0 32 0;
#X connect 2 0 33 0;
#X connect 2 0 34 0;
#X connect 2 0 35 0;
#X connect 2 0 36 0;
#X connect 2 0 37 0;
#X connect 2 0 39 0;
#X connect 2 0 40 0;
#X connect 2 0 41 0;
#X connect 2 0 42 0;
#X connect 2 0 43 0;
#X connect 2 0 44 0;
#X connect 2 0 45 0;
#X connect 2 0 46 0;
#X connect 2 0 47 0;
#X connect 2 0 48 0;
#X connect 2 0 49 0;
#X connect 2 0 50 0;
#X connect 2 0 51 0;
#X connect 2 0 52 0;
#X connect 2 0 53 0;
#X connect 2 0 54 0;
#X connect 2 0 55 0;
#X connect 2 0 56 0;
#X connect 2 0 57 0;
#X connect 2 0 58 0;
#X connect 2 0 59 0;
#X connect 2 0 60 0;
#X connect 2 0 61 0;
#X connect 2 0 62 0;
#X connect 2 0 63 0;
#X connect 2 0 64 0;
#X connect 2 0 65 0;
#X connect 2 0 66 0;
#X connect 2 0 67 0;
#X connect 2 0 68 0;
#X connect 2 0 69 0;
#X connect 2 0 70 0;
#X connect 2 0 71 0;
#X connect 2 0 72 0;
#X connect 2 0 73 0;
#X connect 2 0 75 0;
#X connect 2 0 76 0;
#X connect 2 0 77 0;
#X connect 2 0 78 0;
#X connect 2 0 79 0;
#X connect 2 0 80 0;
#X connect 2 0 81 0;
#X connect 2 0 82 0;
#X connect 2 0 83 0;
#X connect 2 0 84 0;
#X connect 2 0 85 0;
#X connect 2 0 86 0;
#X connect 2 0 87 0;
#X connect 2 0 88 0;
#X connect 2 0 89 0;
#X connect 2 0 90 0;
#X connect 2 0 91 0;
#X connect 2 0 92 0;
#X connect 2 0 93 0;
#X connect 2 0 94 0;
#X connect 2 0 95 0;
#X connect 2 0 96 0;
#X connect 2 0 97 0;
#X connect 2 0 98 0;
#X connect 2 0 99 0;
#X connect 2 0 100 0;
#X connect 2 0 101 0;
#X connect 2 0 102 0;
#X connect 2 0 103 0;
#X connect 2 0 104 0;
#X connect 2 0 105 0;
#X connect 2 0 106 0;
#X connect 2 0 107 0;
#X connect 2 0 108 0;
#X connect 2 0 109 0;
#X connect 2 0 110 0;
#X connect 2 0 111 0;
#X connect 2 0 112 0;
#X connect 2 0 113 0;
#X connect 2 0 114 0;
#X connect 2 0 115 0;
#X connect 2 0 116 0;
#X connect 2 0 117 0;
#X connect 2 0 118 0;
#X connect 2 0 119 0;
#X connect 2 0 120 0;
#X connect 2 0 121 0;
#X connect 2 0 122 0;
#X connect 2 0 123 0;
#X connect 2 0 124 0;
#X connect 2 0 125 0;
#X connect 2 0 126 0;
#X connect 2 0 127 0;
#X connect 2 0 128 0;
#X connect 2 0 129 0;
#X connect 2 0 130 0;
#X connect 2 0 131 0;
#X connect 2 0 132 0;
#X connect 2 0 133 0;
#X connect 4 0 1 0;
#X connect 5 0 4 0;
